<svg width="72" height="72" viewBox="0 0 72 72" fill="none" xmlns="http://www.w3.org/2000/svg">
<path d="M16.65 20.5306C9.6 23.1556 6.075 28.1806 6 35.9806C6 42.1306 7.875 45.9556 12.675 49.4056C17.325 52.7806 23.85 53.4556 29.1 51.1306C32.7 49.4806 33.45 48.1306 31.5 46.4806C30.9 45.9556 30.375 45.0556 30.375 44.5306C30.375 43.1806 30.225 43.1806 26.7 45.0556C18 49.5556 9.45 39.2806 14.625 30.5056C18.6 23.8306 28.425 24.7306 31.2 32.0056C31.575 32.9806 32.025 35.3806 32.175 37.4806C33 45.8806 38.625 51.4306 47.1 52.2556C58.275 53.3056 66.6 44.9056 65.325 33.9556C63.975 22.3306 50.25 15.6556 40.275 21.7306L37.8 23.2306L39.3 25.2556C40.2 26.3056 40.875 27.6556 40.875 28.1806C40.875 28.7806 41.25 29.2306 41.625 29.2306C42.075 29.2306 42.375 28.9306 42.375 28.6306C42.375 28.2556 43.5 27.4306 44.925 26.8306C51.225 23.8306 58.125 28.5556 58.125 35.8306C58.125 39.5806 57.225 41.6806 54.6 43.9306C52.05 46.2556 48.15 46.7806 45.075 45.3556C41.55 43.6306 40.275 41.3806 39.15 34.9306C38.025 28.3306 35.475 24.2806 31.05 21.8056C27.225 19.6306 20.625 19.0306 16.65 20.5306Z" fill="#191919"/>
</svg>
